<?xml version="1.0" standalone="no"?>
<!DOCTYPE svg PUBLIC "-//W3C//DTD SVG 20010904//EN"
 "http://www.w3.org/TR/2001/REC-SVG-20010904/DTD/svg10.dtd">
<svg version="1.0" xmlns="http://www.w3.org/2000/svg"
 width="1093.000000pt" height="1280.000000pt" viewBox="0 0 1093.000000 1280.000000"
 preserveAspectRatio="xMidYMid meet">
<metadata>
Created by potrace 1.15, written by Peter Selinger 2001-2017
</metadata>
<g transform="translate(0.000000,1280.000000) scale(0.100000,-0.100000)"
fill="#000000" stroke="none">
<path d="M7151 11729 c-151 -13 -303 -66 -486 -168 -91 -51 -117 -73 -283
-239 -100 -101 -195 -200 -209 -220 -15 -21 -46 -57 -68 -82 -84 -92 -150
-205 -209 -355 -110 -283 -144 -488 -156 -945 -9 -334 -17 -406 -55 -479 -30
-60 -44 -70 -61 -46 -20 27 -26 13 -15 -34 8 -39 8 -41 -15 -41 -41 0 -99 -29
-117 -59 -9 -15 -15 -45 -15 -67 2 -30 -7 -53 -35 -97 -37 -58 -112 -203 -138
-267 -25 -64 -151 -274 -219 -365 -53 -71 -190 -226 -374 -421 -6 -7 -41 -47
-78 -90 -37 -44 -114 -133 -171 -199 -57 -66 -116 -139 -133 -162 -16 -22 -74
-90 -129 -150 -56 -59 -121 -137 -145 -173 -43 -64 -130 -173 -224 -280 -26
-30 -60 -73 -74 -95 -14 -21 -50 -71 -81 -111 -31 -39 -81 -106 -111 -149 -30
-43 -80 -108 -110 -145 -84 -102 -242 -342 -337 -515 -113 -203 -188 -367
-238 -520 -7 -22 -35 -96 -63 -165 -28 -69 -56 -148 -62 -175 -12 -52 -79
-215 -135 -325 -19 -36 -45 -93 -60 -128 -14 -35 -57 -125 -95 -200 -74 -147
-142 -289 -210 -442 -55 -121 -94 -192 -140 -255 -109 -149 -250 -358 -250
-371 0 -11 -47 -80 -95 -139 -23 -27 -71 -95 -108 -151 -36 -56 -73 -107 -82
-114 -9 -7 -32 -43 -52 -79 -20 -36 -42 -73 -48 -81 -7 -8 -28 -44 -48 -80
-19 -36 -49 -90 -67 -120 -37 -62 -104 -226 -131 -318 -20 -70 -25 -135 -14
-197 5 -29 0 -72 -19 -149 -14 -59 -26 -119 -26 -134 0 -26 1 -25 44 17 24 24
46 39 49 34 3 -4 -11 -35 -30 -68 -34 -57 -51 -105 -37 -105 16 0 121 107 141
143 24 44 40 63 47 56 2 -2 -2 -44 -10 -94 -7 -49 -13 -94 -14 -100 -1 -24 33
28 64 100 19 44 38 80 42 80 5 0 13 -19 19 -42 16 -64 20 -59 21 23 1 86 17
117 35 66 14 -41 21 -40 42 3 20 43 32 45 35 5 3 -43 20 -82 42 -97 13 -9 20
-26 20 -45 l0 -30 19 23 19 24 7 -38 c4 -20 11 -37 15 -37 4 0 13 27 20 60 7
34 18 60 25 60 7 0 23 -24 35 -52 22 -51 23 -52 32 -28 23 61 44 95 61 98 16
3 18 0 12 -28 -8 -36 -5 -36 51 6 17 13 34 20 38 17 3 -4 6 -25 6 -47 l0 -41
25 30 c14 17 30 49 36 73 14 50 72 103 91 84 9 -9 9 -21 -1 -48 -7 -19 -11
-38 -8 -41 18 -17 230 87 266 130 7 9 36 30 65 46 41 23 75 32 171 45 227 29
307 30 450 6 72 -13 157 -26 190 -30 33 -5 74 -13 90 -19 104 -36 410 -42 592
-11 65 12 133 18 151 15 37 -7 39 -16 22 -138 -8 -57 -7 -94 4 -166 8 -50 17
-95 20 -99 3 -5 10 -77 16 -161 l11 -152 -24 -42 c-14 -24 -29 -60 -33 -82 -7
-40 -7 -40 14 -22 27 24 35 11 43 -76 7 -77 32 -112 104 -149 22 -11 78 -44
125 -72 80 -49 158 -78 285 -107 28 -6 174 -15 325 -20 638 -22 734 -28 845
-48 61 -12 159 -29 218 -38 118 -18 137 -15 147 28 5 20 12 24 41 23 18 0 46
-4 62 -8 23 -7 27 -5 27 13 0 37 -85 118 -149 141 -74 28 -101 46 -101 70 0
13 7 18 23 18 12 -1 50 -1 84 0 54 2 67 6 96 32 39 33 75 38 111 14 55 -35 42
42 -15 86 -23 19 -36 36 -32 45 3 8 9 15 15 15 5 0 17 7 25 16 13 12 33 15 91
12 85 -3 104 10 51 37 -20 11 -71 20 -138 24 -59 4 -113 11 -121 16 -7 5 -64
8 -125 6 -107 -1 -112 -1 -135 24 -50 53 -256 104 -349 86 -101 -19 -185 -22
-281 -10 -52 7 -116 11 -142 10 -27 -1 -61 5 -77 14 -17 8 -39 15 -49 15 -40
0 -112 104 -112 161 0 11 -9 37 -19 57 -39 74 -101 214 -101 228 0 8 -5 14
-10 14 -6 0 -16 12 -22 28 -7 15 -21 34 -32 44 -18 15 -19 20 -8 68 7 28 12
64 12 78 0 15 18 61 40 102 22 41 55 107 74 145 36 76 57 97 190 200 220 169
595 551 799 815 32 41 92 116 132 165 41 50 75 94 75 99 0 5 26 39 58 75 66
74 161 197 240 310 30 42 68 92 86 111 18 19 41 47 52 61 68 92 271 363 305
407 22 28 44 52 48 52 4 0 14 -19 21 -42 7 -24 19 -63 26 -88 12 -39 25 -124
38 -240 2 -19 9 -71 15 -115 25 -170 31 -224 36 -325 2 -58 9 -119 14 -135 6
-17 14 -75 20 -130 16 -161 28 -203 64 -226 39 -23 57 -24 127 -4 30 9 92 25
137 35 108 26 156 46 223 91 91 62 132 113 235 293 31 56 95 213 95 236 0 9 8
32 19 52 18 37 49 187 71 348 7 47 14 184 16 305 4 256 -18 506 -65 715 -15
69 -36 163 -45 210 -18 89 -76 349 -102 460 -9 36 -21 79 -29 95 -56 125 -61
168 -30 240 13 30 59 183 77 260 6 22 17 63 25 91 8 29 20 92 28 142 7 49 18
98 23 108 10 20 15 43 57 259 14 72 29 153 35 180 36 189 45 442 25 715 -14
182 -16 281 -10 440 8 230 10 655 3 770 -3 46 -11 86 -21 100 -33 51 -96 207
-102 255 -8 57 -56 151 -125 245 -61 84 -70 102 -70 142 0 35 28 104 51 128 8
8 25 29 37 47 12 17 61 59 109 94 122 86 281 216 292 238 21 38 325 125 546
156 82 12 147 15 210 11 96 -7 159 2 335 48 175 46 280 98 295 147 8 24 -19
129 -49 195 -29 63 -64 91 -189 149 -105 49 -160 60 -342 70 -60 3 -130 11
-155 17 -34 8 -58 8 -95 -2 -60 -15 -79 -16 -171 -8 -92 8 -154 36 -224 101
-177 163 -478 326 -690 373 -183 40 -395 52 -609 33z"/>
</g>
</svg>
